<?xml version="1.0" encoding="UTF-8" standalone="no"?>
<!-- Creator: CorelDRAW -->

<svg
   xmlns:dc="http://purl.org/dc/elements/1.1/"
   xmlns:cc="http://creativecommons.org/ns#"
   xmlns:rdf="http://www.w3.org/1999/02/22-rdf-syntax-ns#"
   xmlns:svg="http://www.w3.org/2000/svg"
   xmlns="http://www.w3.org/2000/svg"
   xmlns:sodipodi="http://sodipodi.sourceforge.net/DTD/sodipodi-0.dtd"
   xmlns:inkscape="http://www.inkscape.org/namespaces/inkscape"
   xml:space="preserve"
   width="5376.9053"
   height="3846.0208"
   style="fill-rule:evenodd"
   viewBox="0 0 5376.9053 3846.0208"
   id="svg2"
   version="1.1"
   inkscape:version="0.48.4 r9939"
   sodipodi:docname="liberty.svg"><metadata
     id="metadata14"><rdf:RDF><cc:Work
         rdf:about=""><dc:format>image/svg+xml</dc:format><dc:type
           rdf:resource="http://purl.org/dc/dcmitype/StillImage" /></cc:Work></rdf:RDF></metadata><sodipodi:namedview
     pagecolor="#ffffff"
     bordercolor="#666666"
     borderopacity="1"
     objecttolerance="10"
     gridtolerance="10"
     guidetolerance="10"
     inkscape:pageopacity="0"
     inkscape:pageshadow="2"
     inkscape:window-width="1366"
     inkscape:window-height="768"
     id="namedview12"
     showgrid="false"
     inkscape:zoom="0.085818182"
     inkscape:cx="1296.5096"
     inkscape:cy="1520.2305"
     inkscape:window-x="0"
     inkscape:window-y="0"
     inkscape:window-maximized="0"
     inkscape:current-layer="svg2"
     fit-margin-top="0"
     fit-margin-left="0"
     fit-margin-right="0"
     fit-margin-bottom="0" /><defs
     id="defs4"><style
       type="text/css"
       id="style6">
    .fil0 {fill:black}
   </style><pattern
       patternUnits="userSpaceOnUse"
       width="5467.2883"
       height="5006.8728"
       patternTransform="translate(28.008473,345.61025)"
       id="pattern5360"><g
         transform="matrix(0,-6.4438518,11.390184,0,0,5006.8728)"
         id="g3085"><rect
           style="fill:#750787"
           y="0"
           x="0"
           height="480"
           width="777"
           id="rect3051" /><rect
           style="fill:#004dff"
           y="0"
           x="0"
           height="400"
           width="777"
           id="rect3053" /><rect
           style="fill:#008026"
           y="0"
           x="0"
           height="320"
           width="777"
           id="rect3055" /><rect
           style="fill:#ffed00"
           y="0"
           x="0"
           height="240"
           width="777"
           id="rect3057" /><rect
           style="fill:#ff8c00"
           y="0"
           x="0"
           height="160"
           width="777"
           id="rect3059" /><rect
           style="fill:#e40303"
           y="0"
           x="0"
           height="80"
           width="777"
           id="rect3061" /></g></pattern></defs><g
     id="Layer_x0020_1"
     transform="translate(-75.499354,-1056.1431)"
     style="fill:url(#pattern5360);fill-opacity:1"><metadata
       id="CorelCorpID_0Corel-Layer" /><path
       class="fil0"
       d="m 4379.07,2813.32 c 0,0 270.676,3.8303 417.504,-30.6425 146.829,-34.4728 209.391,-53.6244 314.086,-169.811 104.695,-116.186 98.3114,-154.489 117.463,-254.078 19.1516,-99.5882 33.1961,-238.756 29.3658,-275.783 -3.8303,-37.0264 5.1071,-54.9012 12.7677,-75.3295 7.6606,-20.4283 7.6606,-81.7134 16.598,-123.847 8.9374,-42.1335 17.8748,-80.4366 39.5799,-127.677 21.7051,-47.2406 61.285,-167.257 63.8386,-209.391 2.5535,-42.1335 38.3032,-137.891 45.9638,-178.748 7.6606,-40.8567 24.2587,-113.633 11.4909,-136.615 -12.7677,-22.9819 -70.2225,-86.8205 -148.106,-108.526 -77.8831,-21.7051 -208.114,-45.9638 -307.702,-43.4102 -99.5882,2.5535 -271.952,17.8748 -331.961,30.6425 -60.0083,12.7677 -292.381,52.3476 -394.522,105.972 -102.142,53.6244 -251.524,127.677 -298.765,169.811 -47.2406,42.1335 -130.231,77.8831 -293.658,214.498 -163.427,136.615 -302.595,250.247 -358.773,312.809 -56.178,62.5618 -136.615,145.552 -208.114,265.569 -71.4992,120.017 -111.079,182.578 -134.061,250.247 -22.9819,67.6689 -52.3476,171.087 -57.4547,102.142 -5.1071,-68.9457 -14.0445,-16.598 11.4909,-76.6063 25.5354,-60.0083 -5.1071,-81.7134 -20.4283,-99.5882 -15.3213,-17.8748 -71.4992,-43.4102 -74.0528,-72.776 -2.5535,-29.3658 -6.3839,-22.9819 26.8122,-76.6063 33.1961,-53.6244 140.445,-217.051 163.427,-255.354 22.9819,-38.3032 168.534,-264.292 211.944,-320.47 43.4102,-56.178 199.176,-294.934 218.328,-352.389 19.1516,-57.4547 37.0264,-75.3295 47.2406,-150.659 10.2142,-75.3295 -45.9638,-91.9276 -51.0709,-42.1335 -5.1071,49.7941 -12.7677,136.615 -19.1516,158.32 -6.3839,21.7051 -93.2043,211.944 -128.954,255.354 -35.7496,43.4102 -215.774,325.577 -229.819,346.005 -14.0445,20.4283 -158.32,255.354 -167.257,270.676 -8.9374,15.3213 -53.6244,89.374 -66.3921,104.695 -12.7677,15.3213 -40.8567,89.374 -54.9012,100.865 -14.0445,11.4909 -17.237,8.9374 -17.237,8.9374 0,0 -4.4681,2.5535 -18.5126,-8.9374 -14.0445,-11.4909 -42.1335,-85.5437 -54.9012,-100.865 -12.7677,-15.3213 -57.4547,-89.374 -66.3921,-104.695 -8.9374,-15.3213 -153.213,-250.247 -167.257,-270.676 -14.0445,-20.4283 -194.069,-302.595 -229.819,-346.005 -35.7496,-43.4102 -122.57,-233.649 -128.954,-255.354 -6.3839,-21.7051 -14.0445,-108.526 -19.1516,-158.32 -5.1071,-49.7941 -61.285,-33.1961 -51.0709,42.1335 10.2142,75.3295 28.089,93.2043 47.2406,150.659 19.1516,57.4547 174.918,296.211 218.328,352.389 43.4102,56.178 188.962,282.167 211.944,320.47 22.9819,38.3032 130.231,201.73 163.427,255.354 33.1961,53.6244 29.3658,47.2406 26.8122,76.6063 -2.5535,29.3658 -58.7315,54.9012 -74.0528,72.776 -15.3213,17.8748 -45.9638,39.5799 -20.4283,99.5882 25.5354,60.0083 16.598,7.6606 11.4909,76.6063 -5.1071,68.9457 -34.4728,-34.4728 -57.4547,-102.142 -22.9819,-67.6689 -62.5618,-130.231 -134.061,-250.247 -71.4992,-120.017 -151.936,-203.007 -208.114,-265.569 -56.178,-62.5618 -195.346,-176.195 -358.773,-312.809 -163.427,-136.615 -246.417,-172.364 -293.658,-214.498 -47.2406,-42.1335 -196.623,-116.186 -298.765,-169.811 -102.142,-53.6244 -334.514,-93.2043 -394.522,-105.972 -60.0083,-12.7677 -232.372,-28.089 -331.961,-30.6425 -99.5882,-2.5535 -229.819,21.7051 -307.702,43.4102 -77.8831,21.7051 -135.338,85.5437 -148.106,108.526 -12.7677,22.9819 3.83032,95.7579 11.4909,136.615 7.66063,40.8567 43.4102,136.615 45.9638,178.748 2.55354,42.1335 42.1335,162.15 63.8386,209.391 21.7051,47.2406 30.6425,85.5437 39.5799,127.677 8.9374,42.1335 8.9374,103.419 16.598,123.847 7.66063,20.4283 16.598,38.3032 12.7677,75.3295 -3.83032,37.0264 10.2142,176.195 29.3658,275.783 19.1516,99.5882 12.7677,137.891 117.463,254.078 104.695,116.186 167.257,135.338 314.086,169.811 146.829,34.4728 417.504,30.6425 417.504,30.6425 0,0 0,0 33.835,0.639 33.835,0.639 15.9591,15.9591 15.9591,15.9591 0,0 -28.089,22.9819 -60.0083,33.1961 -31.9193,10.2142 -128.954,89.374 -159.596,126.4 -30.6425,37.0264 -112.356,118.74 -131.507,160.873 -19.1516,42.1335 -75.3295,136.615 -116.186,191.516 -40.8567,54.9012 -51.0709,139.168 -53.6244,187.685 -2.55354,48.5173 -14.0445,136.615 -11.4909,246.417 2.55354,109.802 34.4728,76.6063 42.1335,154.489 7.66063,77.8831 61.285,203.007 97.0347,243.863 35.7496,40.8567 51.0709,91.9276 51.0709,150.659 0,58.7315 42.1335,154.489 67.6689,180.025 25.5354,25.5354 65.1154,66.3921 100.865,81.7134 35.7496,15.3213 62.5618,48.5173 91.9276,79.1599 29.3658,30.6425 85.5437,97.0347 224.712,128.954 139.168,31.9193 85.5437,20.4283 171.087,63.8386 85.5437,43.4102 225.989,43.4102 256.631,43.4102 30.6425,0 39.5799,-20.4283 67.6689,-12.7677 28.089,7.6606 28.089,11.4909 58.7315,0 30.6425,-11.4909 61.285,14.0445 82.9902,12.7677 21.7051,-1.2768 61.285,-22.9819 85.5437,-35.7496 24.2587,-12.7677 67.6689,-63.8386 95.7579,-95.7579 28.089,-31.9193 79.1599,-103.419 109.802,-159.596 30.6425,-56.178 70.2225,-71.4992 88.0973,-94.4811 17.8748,-22.9819 72.776,-136.615 82.9902,-154.489 10.2142,-17.8748 35.7496,-94.4811 54.9012,-144.275 19.1516,-49.7941 89.374,-227.265 140.445,-406.013 51.0709,-178.748 40.8567,-121.293 54.9012,-134.061 14.0445,-12.7677 2.5535,16.598 11.4909,60.0083 8.9374,43.4102 3.8303,113.633 0,195.346 -3.8303,81.7134 12.7677,173.641 20.4283,284.72 7.6606,111.079 25.5354,95.7579 28.089,140.445 2.5535,44.687 9.5752,43.748 12.7677,43.748 3.6709,0 10.2142,0.939 12.7677,-43.748 2.5535,-44.687 20.4283,-29.3658 28.089,-140.445 7.6606,-111.079 24.2587,-203.007 20.4283,-284.72 -3.8303,-81.7134 -8.9374,-151.936 0,-195.346 8.9374,-43.4102 -2.5535,-72.776 11.4909,-60.0083 14.0445,12.7677 3.8303,-44.687 54.9012,134.061 51.0709,178.748 121.293,356.219 140.445,406.013 19.1516,49.7941 44.687,126.4 54.9012,144.275 10.2142,17.8748 65.1154,131.507 82.9902,154.489 17.8748,22.9819 57.4547,38.3032 88.0973,94.4811 30.6425,56.178 81.7134,127.677 109.802,159.596 28.089,31.9193 71.4992,82.9902 95.7579,95.7579 24.2587,12.7677 63.8386,34.4728 85.5437,35.7496 21.7051,1.2767 52.3476,-24.2587 82.9902,-12.7677 30.6425,11.4909 30.6425,7.6606 58.7315,0 28.089,-7.6607 37.0264,12.7677 67.6689,12.7677 30.6425,0 171.087,0 256.631,-43.4102 85.5437,-43.4102 31.9193,-31.9193 171.087,-63.8386 139.168,-31.9193 195.346,-98.3114 224.712,-128.954 29.3658,-30.6425 56.178,-63.8386 91.9276,-79.1599 35.7496,-15.3213 75.3295,-56.178 100.865,-81.7134 25.5354,-25.5354 67.6689,-121.293 67.6689,-180.025 0,-58.7315 15.3213,-109.802 51.0709,-150.659 35.7496,-40.8567 89.374,-165.98 97.0347,-243.863 7.6606,-77.8831 39.5799,-44.687 42.1335,-154.489 2.5535,-109.802 -8.9374,-197.9 -11.4909,-246.417 -2.5535,-48.5173 -12.7677,-132.784 -53.6244,-187.685 -40.8567,-54.9012 -97.0347,-149.382 -116.186,-191.516 -19.1516,-42.1335 -100.865,-123.847 -131.507,-160.873 -30.6425,-37.0264 -127.677,-116.186 -159.596,-126.4 -31.9193,-10.2142 -60.0083,-33.1961 -60.0083,-33.1961 0,0 -17.876,-15.3201 15.9591,-15.9591 33.835,-0.639 33.835,-0.639 33.835,-0.639 z"
       id="path10"
       inkscape:connector-curvature="0"
       style="fill:url(#pattern5360);fill-opacity:1" /></g></svg>