<?xml version="1.0" encoding="UTF-8" standalone="no"?>
<!-- Created with Inkscape (http://www.inkscape.org/) -->

<svg
   xmlns:dc="http://purl.org/dc/elements/1.1/"
   xmlns:cc="http://creativecommons.org/ns#"
   xmlns:rdf="http://www.w3.org/1999/02/22-rdf-syntax-ns#"
   xmlns:svg="http://www.w3.org/2000/svg"
   xmlns="http://www.w3.org/2000/svg"
   xmlns:xlink="http://www.w3.org/1999/xlink"
   xmlns:sodipodi="http://sodipodi.sourceforge.net/DTD/sodipodi-0.dtd"
   xmlns:inkscape="http://www.inkscape.org/namespaces/inkscape"
   version="1.1"
   width="160"
   height="122.5"
   id="svg2"
   xml:space="preserve"
   inkscape:version="0.48.4 r9939"
   sodipodi:docname="Polyfigures.svg"><sodipodi:namedview
     pagecolor="#ffffff"
     bordercolor="#666666"
     borderopacity="1"
     objecttolerance="10"
     gridtolerance="10"
     guidetolerance="10"
     inkscape:pageopacity="0"
     inkscape:pageshadow="2"
     inkscape:window-width="1366"
     inkscape:window-height="768"
     id="namedview3107"
     showgrid="false"
     inkscape:zoom="1.4142136"
     inkscape:cx="23.76255"
     inkscape:cy="61.25"
     inkscape:window-x="0"
     inkscape:window-y="0"
     inkscape:window-maximized="0"
     inkscape:current-layer="svg2" /><metadata
     id="metadata8"><rdf:RDF><cc:Work
         rdf:about=""><dc:format>image/svg+xml</dc:format><dc:type
           rdf:resource="http://purl.org/dc/dcmitype/StillImage" /><dc:title></dc:title></cc:Work></rdf:RDF></metadata><defs
     id="defs6"><pattern
       inkscape:collect="always"
       xlink:href="#pattern3176"
       id="pattern4823"
       patternTransform="translate(8e-7,-68.249997)" /><pattern
       inkscape:collect="always"
       xlink:href="#pattern3176"
       id="pattern4820"
       patternTransform="translate(8e-7,-68.249997)" /><pattern
       inkscape:collect="always"
       xlink:href="#pattern3176"
       id="pattern4817"
       patternTransform="translate(8e-7,-68.249997)" /><pattern
       inkscape:collect="always"
       xlink:href="#pattern3176"
       id="pattern4814"
       patternTransform="translate(8e-7,-68.249997)" /><pattern
       inkscape:collect="always"
       xlink:href="#pattern3176"
       id="pattern4811"
       patternTransform="translate(8e-7,-68.249997)" /><pattern
       inkscape:collect="always"
       xlink:href="#pattern3176"
       id="pattern4808"
       patternTransform="translate(8e-7,-68.249997)" /><pattern
       inkscape:collect="always"
       xlink:href="#pattern4702"
       id="pattern4707"
       patternTransform="translate(-1.3554082e-7,-3.1757812e-6)" /><pattern
       inkscape:collect="always"
       xlink:href="#pattern4671"
       id="pattern4702"
       patternTransform="translate(1.2931345e-6,-65.421573)" /><pattern
       inkscape:collect="always"
       xlink:href="#pattern3176"
       id="pattern4674"
       patternTransform="translate(0,3e-6)" /><pattern
       patternUnits="userSpaceOnUse"
       width="160"
       height="259"
       patternTransform="translate(8e-7,-68.249997)"
       id="pattern3176"><g
         transform="matrix(0,-0.33333333,0.33333333,0,0,259)"
         id="g3125"><rect
           height="480"
           width="777"
           id="rect3078"
           x="0"
           y="0"
           style="fill:#750787" /><rect
           height="400"
           width="777"
           id="rect3080"
           x="0"
           y="0"
           style="fill:#004dff" /><rect
           height="320"
           width="777"
           id="rect3082"
           x="0"
           y="0"
           style="fill:#008026" /><rect
           height="240"
           width="777"
           id="rect3084"
           x="0"
           y="0"
           style="fill:#ffed00" /><rect
           height="160"
           width="777"
           id="rect3086"
           x="0"
           y="0"
           style="fill:#ff8c00" /><rect
           height="80"
           width="777"
           id="rect3088"
           x="0"
           y="0"
           style="fill:#e40303" /></g></pattern><pattern
       patternUnits="userSpaceOnUse"
       width="160"
       height="259"
       patternTransform="translate(8.0000001e-7,-68.25)"
       id="pattern4671"><rect
         id="rect3185"
         y="0"
         x="0"
         height="259"
         width="160"
         style="fill:url(#pattern4674);stroke:none" /></pattern><pattern
       patternUnits="userSpaceOnUse"
       width="160"
       height="259"
       patternTransform="translate(1.4286753e-6,-65.42157)"
       id="pattern4704"><rect
         id="rect4676"
         y="0"
         x="0"
         height="259"
         width="160"
         style="fill:url(#pattern4707);stroke:none" /></pattern></defs><path
     d="M 55.391125,8.709 C 56.689,6.521 57.98725,5.42675 60.5845,5.42675 c 2.866125,0 5.192875,1.9605 5.192875,4.377 0,4.376375 -5.192875,8.752875 -10.38625,13.129875 -5.193375,-4.377 -10.38575,-8.7535 -10.38575,-13.129875 0,-2.4165 2.326625,-4.377 5.192375,-4.377 2.597125,0 3.8955,1.09425 5.193375,3.28225"
     inkscape:connector-curvature="0"
     id="path14"
     style="fill:url(#pattern4823);fill-opacity:1;fill-rule:nonzero;stroke:none" /><path
     d="m 103.7085,68.63475 c 3.99075,0 6.16113,-7.867125 7.55075,-11.05225 1.61725,-3.7065 3.23437,-9.772875 5.5035,-13.099625 l 0.78413,0.715875 c 0.0405,24.116625 -0.0913,48.2265 -0.0913,72.35447 0,2.32667 1.90325,4.22949 4.22938,4.22949 l 3.4,0 c 2.32625,0 4.22875,-1.90282 4.22875,-4.22949 l 0,-33.850595 c 0,-0.7695 0.1175,-1.55125 0.91375,-1.55125 0.5675,0 0.93125,0.304625 0.93125,1.57425 l 0,33.827595 c 0,2.32618 1.90375,4.22949 4.23,4.22949 l 3.03125,0 c 2.32625,0 4.2225,-1.90282 4.23,-4.22949 l 0.22125,-72.77047 0.90125,0 7.03125,18.097625 c 0.7875,1.421375 3.1425,5.754375 5.1225,5.754375 l 0.15,0 c 1.66125,0 3.00125,-1.253875 3.00125,-3.0005 l 0,-0.449625 c 0,-1.808125 -0.13875,-2.95075 -0.46625,-3.936125 L 148.515,30.890125 C 147.7225,28.067375 145.24875,25.581 142.92875,25.581 l -20.91413,0 c -3.10787,0 -8.03075,-0.1865 -9.32462,3.579125 l -8.68175,24.623625 -0.7505,0 C 100.19925,46.166 98.80175,34.705625 93.986375,28.25 93.672875,27.830625 91.814,26.223125 91.389125,26.045875 89.746625,25.359375 89.1065,25.581 87.3525,25.581 c -6.90675,0 -13.796875,-0.04775 -20.707,0.01563 -3.265125,0.02988 -3.78225,2.71 -4.983375,6.254 L 55.69875,49.44 c -0.164625,0.764625 -0.50925,2.69325 -1.357875,2.69325 -0.07963,0 -0.329125,-0.21575 -0.45025,-0.29975 L 46.461,28.959 c -1.010375,-2.23975 -2.895125,-3.978 -6.07525,-3.978 l -20.40675,0 c -2.680125,0 -6.44775,1.7685 -7.306625,4.396875 L 0.92236375,65.3345 l 0,0.899875 c 0,1.794 1.92431125,2.850125 3.45117375,2.850125 1.6875,0 2.7734375,0.03312 5.311525,-6.24025 2.3183505,-5.73 3.9750625,-11.7115 6.1791875,-17.485375 L 16.6855,45.273 c 0.182125,0.06 0.592375,0.166 0.592375,0.409625 l -10.80375,34.953125 11.40375,0.30025 0.046,36.50688 c 0.0068,5.75927 9.941375,5.87694 10.00775,0.39598 l 0.44675,-36.925735 1.591375,5e-4 -0.120125,35.510205 c -0.0059,1.98193 1.398875,5.31543 3.784125,5.31543 l 1.95075,0 c 2.3325,0 4.17675,-2.78516 4.17825,-4.94727 L 39.78613,81.086 40.115755,80.815875 51.33988,80.63575 l -9.6035,-35.253 c 0,-0.317375 0.05362,-0.19775 0.149875,-0.6 l 0.600625,0 c 0.36025,0 0.440875,0.243125 0.750375,0.450125 L 50.831,67.0435 c 0.517625,0.671875 1.390625,1.741125 2.4595,1.741125 l 0.45025,0 c 2.470625,0 3.858375,-2.493625 4.86175,-4.140625 l 7.592375,-19.26125 0.900375,0 0,0.75 -10.611375,33.5005 c -0.30125,0.95175 -0.119625,1.0025 2.65875,1.0025 l 8.7055,0.21825 -0.0024,35.78468 c -5e-4,7.12792 9.88175,6.79442 9.98525,-0.20899 l 0.518125,-35.04394 1.5225,0.0078 -0.04787,35.56451 c -0.0079,5.7539 9.9155,6.83446 9.929625,0.43067 l 0.15,-68.55568 c 0,-0.859875 -0.338375,-4.05025 0.450125,-4.05025 l 0.600125,0 c 1.24125,0 4.546875,11.42725 5.079625,13.223125 0.9555,3.22025 4.01512,10.628875 7.67525,10.628875"
     inkscape:connector-curvature="0"
     id="path16"
     style="fill:url(#pattern4820);fill-opacity:1;fill-rule:evenodd;stroke:none" /><path
     d="m 29.961375,0.6435 c 6.004875,0 10.875,4.869625 10.875,10.875 0,6.005 -4.870125,10.875 -10.875,10.875 -6.005375,0 -10.875,-4.87 -10.875,-10.875 0,-6.005375 4.869625,-10.875 10.875,-10.875"
     inkscape:connector-curvature="0"
     id="path18"
     style="fill:url(#pattern4817);fill-opacity:1;fill-rule:evenodd;stroke:none" /><path
     d="m 80.160625,0.6435 c 6.004875,0 10.8745,4.869625 10.8745,10.875 0,6.005 -4.869625,10.875 -10.8745,10.875 -6.005375,0 -10.875,-4.87 -10.875,-10.875 0,-6.005375 4.869625,-10.875 10.875,-10.875"
     inkscape:connector-curvature="0"
     id="path20"
     style="fill:url(#pattern4814);fill-opacity:1;fill-rule:evenodd;stroke:none" /><path
     d="m 129.4425,0.6435 c 6.00375,0 10.875,4.869625 10.875,10.875 0,6.005 -4.87125,10.875 -10.875,10.875 -6.006,0 -10.87563,-4.87 -10.87563,-10.875 0,-6.005375 4.86963,-10.875 10.87563,-10.875"
     inkscape:connector-curvature="0"
     id="path22"
     style="fill:url(#pattern4811);fill-opacity:1;fill-rule:evenodd;stroke:none" /><path
     d="m 104.90825,8.643125 c 1.29825,-2.1885 2.59612,-3.28225 5.19375,-3.28225 2.86575,0 5.19237,1.960875 5.19237,4.376 0,4.377375 -5.19237,8.753875 -10.38612,13.130375 -5.192875,-4.3765 -10.38575,-8.753 -10.38575,-13.130375 0,-2.415125 2.326625,-4.376 5.192875,-4.376 2.596625,0 3.894995,1.09375 5.192875,3.28225"
     inkscape:connector-curvature="0"
     id="path24"
     style="fill:url(#pattern4808);fill-opacity:1;fill-rule:nonzero;stroke:none" /></svg>